# xmcd
#
# Track frame offsets:
# 150
# 8591
# 24835
# 42809
# 58724
# 79043
# 104429
# 127344
# 144621
# 164319
# 188854
# 207733
# 216954
# 235739
# 255825
# 269634
#
# Disc length: 4231 seconds
#
# Revision: 1
# Processed by: cddbd v1.5.1PL0 Copyright (c) Steve Scherf et al.
# Submitted via: CedeCatalogueitor 2.6.0.5 http://personales.ya.com/cdcatalogueitor
#
DISCID=e2108510
DTITLE=Alicia Keys - Songs In A Minor (Special Edition)
DYEAR=2001
DGENRE=Rythm and Blues
TTITLE0=Piano and I 
TTITLE1=Girlfriend 
TTITLE2=How Come You Don`t CallMe 
TTITLE3=Fallin`
TTITLE4=Troubles
TTITLE5=Rock Wit U
TTITLE6=A Woman`s Worth 
TTITLE7=Jane Doe 
TTITLE8=Goodbye
TTITLE9=The Life 
TTITLE10=Mr.Man (Duet With Jimmy Cozier)
TTITLE11=Never Felt This Way (Interlude)
TTITLE12=Butterflyz
TTITLE13=Why Do I Feel So Sad 
TTITLE14=Caged Bird (Outro)
TTITLE15=A Womans Worth (Remix) 
EXTD=
EXTT0=
EXTT1=
EXTT2=
EXTT3=
EXTT4=
EXTT5=
EXTT6=
EXTT7=
EXTT8=
EXTT9=
EXTT10=
EXTT11=
EXTT12=
EXTT13=
EXTT14=
EXTT15=
PLAYORDER=
